<?xml version="1.0" encoding="utf-8"?>
<svg version="1.1" xmlns="http://www.w3.org/2000/svg" xmlns:xlink="http://www.w3.org/1999/xlink" x="0px" y="0px"
	 viewBox="-280 0 1200 600" style="enable-background:new 0 0 680 542;" xml:space="preserve">

<g id="backgound" transform="translate(0.000000,542.000000) scale(0.100000,-0.100000)"
fill="#000000" stroke="none">
<path d="M4108 5396 c-50 -13 -110 -54 -133 -89 -18 -28 -55 -132 -100 -282
-20 -66 -42 -125 -50 -131 -7 -5 -51 -16 -97 -23 -46 -6 -99 -16 -118 -21 -19
-5 -79 -17 -133 -26 l-98 -17 -27 25 c-96 87 -125 113 -191 167 -88 71 -130
93 -191 99 -60 5 -150 -29 -186 -71 -69 -81 -116 -243 -165 -572 -27 -182 -32
-199 -59 -206 -14 -4 -55 -7 -92 -8 -129 -2 -394 -68 -434 -108 -21 -22 -17
-51 10 -68 23 -15 31 -14 135 19 112 35 337 72 372 61 20 -7 23 -24 13 -62 -5
-18 -21 -27 -78 -44 -168 -49 -376 -138 -405 -173 -21 -25 -3 -70 28 -74 14
-2 69 18 130 46 170 81 311 120 304 85 -5 -25 -38 -408 -64 -733 -6 -80 -13
-147 -15 -149 -2 -2 -45 4 -96 14 -294 56 -398 76 -443 85 -27 6 -158 31 -290
56 -132 25 -312 58 -400 75 -211 40 -577 108 -640 119 -27 5 -139 25 -248 45
-201 36 -216 37 -274 7 -57 -29 -57 -25 -49 -595 7 -543 20 -1219 32 -1680 l7
-268 36 -30 c20 -16 40 -29 45 -29 6 0 40 -9 76 -20 36 -10 112 -33 170 -50
58 -16 119 -34 135 -39 17 -6 143 -42 280 -81 138 -39 264 -75 280 -81 27 -8
164 -48 345 -99 36 -10 191 -55 345 -100 154 -45 303 -87 330 -95 107 -29 692
-195 720 -204 137 -45 229 -65 319 -69 56 -2 109 1 120 7 12 5 66 28 121 50
809 320 1225 485 1250 496 17 7 62 25 100 40 39 15 89 36 112 46 48 21 69 24
78 9 12 -19 82 -49 131 -55 61 -8 219 7 414 40 264 44 593 171 807 311 237
154 415 434 487 764 9 41 21 94 26 118 12 53 13 483 1 514 -5 13 -14 58 -21
101 -15 102 -93 418 -132 532 -88 262 -207 482 -387 715 -231 299 -490 540
-966 900 -60 45 -110 88 -110 93 0 11 116 39 213 52 28 4 62 15 74 25 19 15
21 22 13 46 -9 24 -17 30 -47 32 -33 3 -235 -34 -320 -59 -18 -5 -38 -9 -45
-9 -14 0 -123 88 -123 99 0 16 159 91 266 126 118 38 134 48 134 79 0 28 -18
46 -46 46 -70 0 -337 -104 -416 -163 l-28 -21 -22 21 c-94 84 -330 281 -391
326 -153 113 -231 140 -329 113z m137 -115 c22 -10 72 -41 110 -70 89 -65 393
-323 394 -335 1 -4 -24 -35 -54 -68 -30 -32 -55 -65 -55 -71 0 -7 7 -23 16
-35 26 -38 62 -29 125 34 64 63 75 64 127 11 l32 -33 -42 -24 c-105 -57 -128
-91 -91 -132 24 -27 46 -23 133 27 44 25 87 45 96 45 29 0 504 -367 504 -389
0 -5 -7 -14 -14 -21 -8 -6 -22 -34 -32 -62 -62 -188 142 -371 320 -287 24 11
52 29 61 39 23 25 36 18 99 -56 l55 -64 -34 -50 c-19 -28 -37 -67 -41 -86 -17
-92 25 -193 104 -248 54 -38 154 -48 217 -21 l40 16 23 -28 c28 -35 131 -246
166 -338 75 -203 167 -590 187 -785 21 -211 -5 -464 -67 -649 -28 -84 -84
-206 -107 -236 -16 -20 -16 -20 -31 2 -24 33 -197 162 -219 163 -5 0 -34 -24
-65 -53 -77 -72 -120 -104 -236 -176 -129 -81 -157 -95 -274 -136 -119 -42
-209 -64 -415 -104 -191 -37 -195 -37 -206 -8 -5 12 -27 39 -48 58 -32 29 -57
40 -134 58 -101 24 -1255 275 -1429 311 -142 30 -221 48 -226 53 -2 2 -8 278
-13 613 -6 426 -13 622 -21 651 -8 26 -27 56 -49 76 -39 35 -88 48 -451 121
l-115 23 -4 34 c-5 50 42 629 69 864 29 240 107 742 135 862 33 143 90 213
171 213 49 0 90 -30 306 -220 76 -67 86 -80 92 -118 9 -53 36 -82 76 -82 48 0
73 35 68 97 -4 46 -2 52 16 57 38 10 44 6 50 -38 12 -81 77 -113 126 -61 19
20 22 32 18 75 -5 47 -3 52 19 61 37 14 43 11 43 -16 0 -38 25 -92 48 -104 31
-17 51 -13 77 14 21 20 25 34 25 85 0 61 17 125 92 360 42 129 61 164 100 183
43 22 84 21 133 -2z m-2790 -2918 c24 -26 26 -34 23 -100 -4 -90 -23 -115 -82
-111 -33 2 -44 9 -63 37 -36 53 -30 143 12 184 26 27 80 22 110 -10z m263 -26
c66 -70 21 -217 -67 -217 -57 0 -76 27 -76 107 0 62 2 66 38 99 43 40 75 43
105 11z m-472 -151 c23 -25 39 -110 28 -142 -21 -58 -86 -73 -129 -30 -42 42
-47 165 -8 194 26 19 84 8 109 -22z m614 -86 c41 -41 18 -145 -40 -175 -67
-35 -120 -7 -120 63 0 95 104 168 160 112z m-295 -56 c31 -30 45 -60 59 -125
3 -14 16 -31 29 -38 27 -14 57 -70 57 -105 0 -31 -32 -70 -70 -86 -39 -16
-219 -8 -300 14 -110 29 -158 132 -89 190 17 14 35 26 40 26 5 0 20 24 33 53
49 111 167 146 241 71z m4659 -865 c36 -39 66 -78 66 -85 0 -16 -103 -86 -197
-133 -72 -36 -81 -37 -90 -13 -4 9 -29 50 -55 91 -27 41 -47 78 -46 83 2 5 53
40 113 77 81 52 114 67 126 60 9 -4 46 -41 83 -80z m-2834 0 c0 -6 -137 -59
-152 -59 -9 0 -11 84 -3 91 6 7 155 -24 155 -32z m325 -72 l89 -23 -87 -29
c-83 -28 -90 -29 -145 -16 -31 7 -72 16 -89 18 -18 3 -33 8 -33 12 0 10 122
59 150 60 14 0 65 -10 115 -22z m391 -93 c36 -9 62 -20 57 -24 -4 -4 -42 -19
-84 -34 l-76 -27 -84 24 -83 24 74 26 c90 31 112 32 196 11z m-757 -40 l74
-17 -79 -28 c-109 -39 -114 -39 -114 15 0 42 10 57 35 50 6 -1 43 -10 84 -20z
m2252 -31 c63 -109 76 -148 53 -157 -28 -11 -186 -44 -245 -51 l-56 -7 -7 41
c-3 23 -18 71 -32 107 -15 36 -25 67 -22 69 6 7 219 52 250 54 22 1 31 -8 59
-56z m-1866 -62 c39 -10 63 -21 55 -24 -90 -33 -255 -87 -268 -87 -21 0 -122
43 -122 52 0 10 201 76 235 77 17 0 62 -8 100 -18z m-436 -142 c28 -12 51 -25
51 -29 0 -6 -96 -40 -113 -40 -4 0 -7 20 -7 45 0 25 4 45 9 45 4 0 31 -10 60
-21z"/>
<path d="M4133 4472 c-101 -94 14 -250 137 -187 68 35 79 135 20 188 -43 39
-115 39 -157 -1z"/>
<path d="M3635 4403 c-14 -14 -16 -28 -11 -80 7 -67 6 -69 -58 -121 -35 -28
-6 -92 41 -92 11 0 37 11 58 26 29 20 44 24 69 18 77 -17 146 6 146 49 0 37
-16 51 -66 56 l-47 6 -24 65 c-14 36 -29 70 -35 77 -15 18 -54 16 -73 -4z"/>
<path d="M3114 4266 c-29 -29 -34 -41 -34 -79 0 -84 80 -144 152 -114 51 21
78 61 78 114 0 38 -5 50 -34 79 -29 29 -41 34 -81 34 -40 0 -52 -5 -81 -34z"/>
</g>
</svg>